<svg xmlns="http://www.w3.org/2000/svg" xml:space="preserve" id="girl-enjoying-music-party" x="0" y="0" style="enable-background:new 0 0 3000 3000" version="1.1" viewBox="0 0 3000 3000">
  <g style="opacity:.25">
    <path d="M2445.54 1175.5c-13.07 0-19.73-7.64-25.62-14.37-5.67-6.5-10.57-12.11-20.63-12.11-10.06 0-14.96 5.61-20.63 12.11-5.88 6.74-12.55 14.37-25.62 14.37-13.06 0-19.73-7.64-25.61-14.37-5.67-6.49-10.57-12.11-20.63-12.11-10.06 0-14.95 5.61-20.63 12.11-5.88 6.74-12.55 14.37-25.61 14.37-13.06 0-19.73-7.64-25.61-14.37-5.67-6.5-10.57-12.11-20.63-12.11-1.83 0-3.31-1.48-3.31-3.31s1.48-3.31 3.31-3.31c13.06 0 19.73 7.64 25.61 14.37 5.67 6.5 10.57 12.11 20.63 12.11 10.05 0 14.95-5.61 20.63-12.11 5.88-6.74 12.55-14.37 25.61-14.37 13.06 0 19.73 7.64 25.61 14.37 5.67 6.5 10.57 12.11 20.63 12.11 10.06 0 14.96-5.61 20.63-12.11 5.88-6.74 12.55-14.37 25.62-14.37s19.73 7.64 25.62 14.37c5.67 6.5 10.57 12.11 20.63 12.11 1.83 0 3.31 1.48 3.31 3.31s-1.48 3.31-3.31 3.31zM2445.54 1219.46c-13.07 0-19.73-7.64-25.62-14.37-5.67-6.5-10.57-12.11-20.63-12.11-10.06 0-14.96 5.61-20.63 12.11-5.88 6.74-12.55 14.37-25.62 14.37-13.06 0-19.73-7.64-25.61-14.37-5.67-6.5-10.57-12.11-20.63-12.11-10.06 0-14.95 5.61-20.63 12.11-5.88 6.74-12.55 14.37-25.61 14.37-13.06 0-19.73-7.64-25.61-14.37-5.67-6.5-10.57-12.11-20.63-12.11-1.83 0-3.31-1.48-3.31-3.31s1.48-3.31 3.31-3.31c13.06 0 19.73 7.63 25.61 14.37 5.67 6.5 10.57 12.11 20.63 12.11 10.05 0 14.95-5.61 20.63-12.1 5.88-6.74 12.55-14.37 25.61-14.37 13.06 0 19.73 7.63 25.61 14.37 5.67 6.5 10.57 12.11 20.63 12.11 10.06 0 14.96-5.61 20.63-12.11 5.88-6.74 12.55-14.37 25.62-14.37s19.73 7.63 25.62 14.37c5.67 6.5 10.57 12.11 20.63 12.11a3.305 3.305 0 1 1 0 6.61z" style="fill:#f9d980"></path>
  </g>
  <g style="opacity:.25">
    <path d="m862.08 1357.16-39.64-33.59v67.19zM916.21 1357.16l-39.63-33.59v67.19zM970.35 1357.16l-39.64-33.59v67.19z" style="fill:#f9d980"></path>
  </g>
  <path d="M1956.19 2231.82c-8.68 9.76-18.82 9.68-27.76 9.6-8.62-.08-16.07-.14-22.76 7.38-6.68 7.52-5.74 14.91-4.66 23.46 1.12 8.87 2.4 18.93-6.28 28.69-8.68 9.76-18.82 9.67-27.76 9.59-8.62-.08-16.07-.14-22.75 7.37-6.68 7.52-5.74 14.9-4.66 23.46 1.13 8.87 2.4 18.93-6.28 28.69-8.68 9.76-18.82 9.67-27.76 9.59-8.62-.08-16.07-.14-22.75 7.37a3.298 3.298 0 0 1-4.67.27 3.298 3.298 0 0 1-.27-4.67c8.68-9.76 18.82-9.67 27.76-9.59 8.62.08 16.07.14 22.75-7.37s5.74-14.9 4.66-23.46c-1.13-8.87-2.4-18.93 6.28-28.69 8.68-9.76 18.82-9.67 27.76-9.59 8.62.08 16.07.14 22.75-7.37 6.68-7.52 5.75-14.91 4.66-23.46-1.12-8.87-2.4-18.93 6.28-28.69 8.68-9.77 18.82-9.68 27.76-9.6 8.62.08 16.07.14 22.75-7.38a3.298 3.298 0 0 1 4.67-.27c1.37 1.21 1.5 3.3.28 4.67z" style="fill:#f5b501"></path>
  <path d="M1144.54 1222.44c-451.2-100.75-733.02-433.1-759.97-259.58-61.08 277.04 289.33 593.64 300.25 703.95 1.36 112.6-42 230.05-6.2 304.72 44 91.54 216.53 109.45 382.38 123.35 249.9 20.26 508.99 44.41 789.31 5.92 276.47-37.89 584.38-153.64 727.79-377.13 58.08-86.13 66.74-223.75-19.22-298.3-51.04-45.63-105.19-45.22-151.89-41.41-141.1 12.83-317.45 201.16-455.86 65.3-57.29-62.43 63.54-184.25-10.52-211.49-190.79-79.79-314.02 93.16-796.07-15.33z" style="fill:#f9f5ed"></path>
  <path d="m805.84 497.93-49.95 1.52-3.91 25.24-5.51 35.51c-3.71-1.91-8.7-2.74-14.22-2.04-11.47 1.46-20.81 8.95-20.86 16.72-.04 7.77 9.22 12.89 20.7 11.43 11.47-1.46 20.81-8.95 20.85-16.72l6.95-62.75 45.95-8.91z" style="fill:#f9d980"></path>
  <path d="m804.45 497.97-3.92 25.25-5.51 35.51c-3.71-1.91-8.7-2.74-14.22-2.04-11.47 1.46-20.81 8.95-20.85 16.72-.04 7.77 9.22 12.89 20.7 11.43 11.47-1.46 20.81-8.95 20.85-16.72l2.95-70.15zM1866.18 661.83a25.567 25.567 0 0 0-5.5-7.31c-2.3-2.06-4.99-3.71-7.89-4.67-4.21-1.45-8.59-1.59-12.74-1.07-.09-3.03-.17-6.05-.22-9.08-.06-3.31-.1-6.61-.11-9.92 3.54-2.63 7.12-5.35 10.61-8.55 2.15-2 4.28-4.19 6.18-6.88.99-1.41 1.71-2.69 2.43-4.03.72-1.34 1.38-2.73 1.97-4.19 1.18-2.88 2.04-6.03 2.35-9.38.28-3.35-.01-6.96-1.38-10.42-1.34-3.45-3.81-6.62-6.93-8.72-3.1-2.13-6.71-3.24-10.16-3.48-.43-.05-.86-.05-1.29-.06l-.64-.02h-.25l-.34.02c-.23.02-.45.03-.68.06-1.86.25-3.51 1.2-4.57 2.15-2.12 1.98-2.82 3.76-3.52 5.38-1.25 3.24-1.74 6.12-2.19 9-.81 5.72-1.06 11.23-1.19 16.74-.1 5.16-.05 10.29.08 15.4-8.52 6.29-17.6 12.77-25.02 21.83-3.72 4.58-6.92 9.94-8.71 15.94a40.298 40.298 0 0 0-1.12 18.39c1 6.03 3.24 11.87 6.67 17 3.43 5.12 8.13 9.49 13.64 12.4 5.5 2.94 11.72 4.37 17.75 4.33 1.38 0 2.75-.08 4.1-.2.27 2.71.54 5.42.78 8.12.23 2.67.45 5.34.56 7.97.05 1.29.09 2.66-.01 3.75l-.04.33c.01.02-.03.13-.08.25-.08.23-.16.46-.3.69-.23.46-.57.9-.94 1.32-1.54 1.7-3.85 2.92-6.25 3.69-2.41.77-5.02 1.07-7.55.78-2.19-.22-4.36-.96-6.09-2.34.67.23 1.38.38 2.13.38a6.66 6.66 0 0 0 6.66-6.67c0-3.68-2.98-6.67-6.66-6.67s-6.67 2.98-6.67 6.67c0 1.96.86 3.7 2.21 4.92.27.44.55.87.88 1.27 1.79 2.2 4.49 3.57 7.26 4.14 2.78.57 5.67.49 8.46-.12 2.77-.64 5.54-1.72 7.86-3.81.57-.54 1.12-1.12 1.56-1.83.24-.34.44-.72.61-1.11.09-.18.19-.38.27-.69.07-.24.12-.46.15-.66.27-1.58.3-2.91.35-4.31.08-2.75.06-5.47.02-8.18-.05-2.87-.12-5.74-.2-8.61 2.97-.59 5.89-1.57 8.61-2.96 5.57-2.82 10.18-7.33 13.26-12.54 3.12-5.21 4.84-11.09 5.2-17.02.33-5.89-.61-11.98-3.37-17.42zm-22.17-77.54c-.01.01-.04.03-.06.05.06-.07.08-.1.06-.05zm-2.52 8.01c.42-2.43.98-4.87 1.74-6.64.13-.32.28-.62.42-.85.07.01.14 0 .2.01 3.86.4 6.68 2.36 7.87 5.49 1.24 3.15.73 7.52-1.03 11.67a32.63 32.63 0 0 1-1.49 3.11c-.56 1.03-1.19 2.08-1.75 2.87-1.22 1.71-2.86 3.42-4.67 5.06-.96.87-1.97 1.72-3.01 2.57.05-2.62.12-5.24.24-7.85.25-5.25.64-10.51 1.48-15.44zm-7.92 111.09c-4.73-.22-9.28-1.38-13.23-3.64-3.95-2.24-7.3-5.5-9.77-9.4-2.45-3.9-4.04-8.39-4.68-12.99-.62-4.64-.39-9.27.98-13.58 1.34-4.34 3.75-8.41 6.84-12.15 4.68-5.67 10.68-10.53 17.07-15.27.07 1.24.13 2.48.2 3.72.22 3.56.48 7.11.74 10.67-1.48.52-2.93 1.14-4.32 1.92-2.56 1.4-4.9 3.36-6.59 5.8-1.71 2.43-2.69 5.28-3.07 8.1-.38 2.83-.19 5.66.3 8.37 1.06 5.42 2.15 5.02 1.69-.23-.23-2.61-.16-5.24.39-7.72.55-2.47 1.6-4.78 3.18-6.63 2.22-2.65 5.32-4.35 8.7-5.41.44 5.83.91 11.65 1.46 17.47l3.07 30.99c-.99.01-1.98.02-2.96-.02zm28.73-24.74c-.57 4.79-2.21 9.46-4.77 13.41-2.57 3.95-6.11 7.11-10.25 9-1.63.75-3.34 1.3-5.11 1.68l-1.27-30.83c-.23-6.15-.48-12.3-.69-18.44 3.76-.24 7.41.15 10.65 1.53 2.16.9 4.09 2.21 5.71 3.84 1.6 1.65 2.91 3.6 3.84 5.76 1.91 4.3 2.44 9.27 1.89 14.05z" style="fill:#f9d980"></path>
  <ellipse cx="1388.04" cy="2736.65" rx="392.45" ry="60.71" style="fill:#fcefd6"></ellipse>
  <path d="m2015.76 939.46-279.04 111.5-155.15-77.43 26.91 127.13s92.99 41.61 150.2 26c57.21-15.6 268.88-160.44 268.88-160.44l-11.8-26.76z" style="fill:#f4caba"></path>
  <path d="M1772.31 1121.55c-8.01 2.09-16.25 3.49-24.53 3.8-6.43.25-13.42 0-19.43-2.56-4.74-2.02-8.9-5.13-13.22-7.88-4.66-2.96-9.61-5.28-15.17-5.83-6.15-.61-12.33.21-18.49-.07-4.84-.22-9.6-1.24-13.83-3.66-7.3-4.17-11.92-11.72-14.54-19.51-1.36-4.03-2.26-8.2-2.78-12.42-.61-4.96-.7-9.97-1.23-14.94-1.2-11.3-3.4-22.52-6.99-33.32-3.23-9.71-7.57-19.01-12.77-27.81l-47.75-23.83 26.91 127.13s92.99 41.61 150.2 26c4.3-1.17 9.48-3.09 15.37-5.6-.59.16-1.17.35-1.75.5z" style="opacity:.35;fill:#e8ad80"></path>
  <path d="m1491.12 897.64 140.17 92.07s23.79 102.64-2.05 117.88c-25.85 15.24-104.76-53.16-104.76-53.16l-33.36-156.79z" style="fill:#f9d980"></path>
  <path d="M1614.55 1056.41a227.505 227.505 0 0 0-30.11-42.93c-11.94-13.41-25.46-25.37-40.09-35.76-13.01-9.24-26.88-17.2-41.29-24.03l21.43 100.72s78.91 68.4 104.76 53.16c1.73-1.02 3.22-2.44 4.53-4.18-4.78-16.26-11.16-32.06-19.23-46.98z" style="opacity:.35;fill:#f5b501"></path>
  <path d="m2081.82 955.87-.01-.01c-2.68 2.04-6.79 4.51-13.19 7.54 0 0 .03-.04.1-.1-3.14 1.63-6.52 3.11-9.98 4.41-5.96 2.26-10.45 3.57-13.66 4.34-.02 0-.03.01-.04.01-4.75 1.11-17.48-5.84-17.48-5.84s-72.27 47.68-79.93 50.45c-8.77-.13-23.48-37.1-23.48-37.1 1.41-7.5 86.86-28.75 91.61-40.11 5.54-13.26 1.49-46.47 11.62-42.35 10.15 4.13 5.43 26.66 5.43 26.66s.19-.22.56-.6c2.23-2.34 10.88-10.97 21.07-15.85l.01-.01c2.84-1.34 5.8-2.4 8.77-2.95.52-.09 1.05-.18 1.57-.25.93-.12 1.88-.18 2.81-.17h.47c.47.01.93.03 1.4.07l.05.01.02.02c1.18.46 2.44 1.37 3.63 3.07 3.82 5.49 0 9.17 0 9.17s5.13-.94 7.53 3.96c2.56 5.21-1.42 6.94-1.42 6.94s5.58.75 7.44 4.93c1.97 4.41-2.68 6.34-2.68 6.34s4.03-.04 6.39 5.1c2.14 4.61-8.61 12.32-8.61 12.32z" style="fill:#f4caba"></path>
  <path d="m2217.9 950.03-107.52-24.46c26.92 45.91 11.11 105.51-3.35 106.14-24.86 1.09-55.06-178.3-70.79-206.72-15.74-28.42-37.71-23.53-37.71-23.53l-3.9 3.9 2.42 3.62c39.08-3.78 34.93 160.57 61.5 246.25 20.32 65.52 86.35 55.39 106.28 7.42 6.18-14.87 18.83-51.89 30.12-77.39 11.9-26.88 22.95-35.23 22.95-35.23z" style="fill:#f5b501"></path>
  <path d="M2069.65 1075.94c-2.33-8.01-3.73-16.37-4.45-24.67-.36-4.1-.53-8.21-.53-12.32 0-3.9.04-7.65-.78-11.48-2.82-13.2-11.54-25.77-6.36-39.56 1.01-2.67 2.39-5.45 2.6-8.34.19-2.69-1.6-5.03-4.42-4.96-1.58.04-2.99.53-4.33-.61-1.9-1.62-2.71-4.62-3.08-6.99-.97-6.3-.55-12.99 1.67-18.96 1.02-2.76 1.84-5.62 2.23-8.54.11-.84-.16-.91-.83-1.29-.82-.46-1.59-1.03-2.27-1.68-4.85-4.69-6.88-11.48-7.77-17.97-.42-3.05-1.03-6.19.09-9.15 1.16-3.06 3.01-5.52 2.42-8.99-.43-2.52-2.74-3.43-4.27-5.2a12.194 12.194 0 0 1-2.98-8.25c.07-3.2 1.22-6.24 1.89-9.33.84-3.89.43-7.44-.97-11.14-2.47-6.54-6.72-12.3-8.58-19.09-.92-3.37-1.07-6.92-1.65-10.36-.55-3.28-1.27-6.53-2.33-9.68-2.26-6.74-6.4-13.72-12.45-17.69-4.68-3.07-10.27-4.35-15.08-7.11l-2.8 2.8 2.42 3.62c39.08-3.78 34.93 160.57 61.5 246.25 3.19 10.27 7.49 18.68 12.57 25.38-.53-1.56-1.01-3.13-1.46-4.69zM2112.19 925.99a37.53 37.53 0 0 0 2.71 5.69c6.33 10.87 17.15 18.63 27.97 24.58 5.18 2.85 10.58 5.49 16.11 7.58 4.23 1.6 8.65 2.64 12.96 4.01 3.67 1.17 7.65 2.53 10.52 5.22 2.68 2.52 3.3 5.97 2.29 9.43-1.7 5.87-6.04 10.63-10.73 14.34-5.38 4.26-11.79 7.69-16.12 13.12-1.99 2.5-3.32 5.43-3.83 8.59-.49 3.02-.29 6.11.12 9.13.75 5.61 2.05 11.18 1.98 16.87-.05 4.13-1.16 8.02-3.99 11.12-3.73 4.08-9.03 6.25-13.87 8.68-4.16 2.08-8.16 4.4-10.57 8.54-1.47 2.53-2.15 5.29-3.03 8.05-.84 2.63-1.91 5.2-3.36 7.55-2.31 3.75-5.63 6.72-9.81 8.2-4.64 1.64-9.74 1.44-14.52.67-3.57-.57-7.07-1.47-10.47-2.66 27.66 16.63 64.31 1.6 78.29-32.05 6.18-14.87 18.83-51.89 30.12-77.39 11.9-26.89 22.95-35.23 22.95-35.23l-105.72-24.04z" style="fill:#f5b501;opacity:.5"></path>
  <path d="m1979.68 805.51 17.36 3.47s-2.79-3.91 1.48-7.52l-18.98.83c0 .01-2.28.71.14 3.22z" style="fill:#e8ad80"></path>
  <path d="M2218.7 948.45c-.49 6.31-27.1 5.56-57.7 1.27-30.61-4.29-51.5-18.23-50.62-24.5.88-6.27 24.82-8.9 55.43-4.6 30.6 4.29 53.59 18.69 52.89 27.83z" style="fill:#5e3f35"></path>
  <path d="M2024.87 898.64s.1 8.61-1.13 9.55c-1.23.94-2.64-.32-2.64-.32s1.2-8.19 3.77-9.23z" style="opacity:.2;fill:#fff"></path>
  <path d="M2090.45 943.55c-2.36-5.14-6.39-5.1-6.39-5.1s4.65-1.93 2.68-6.34c-1.86-4.17-7.44-4.93-7.44-4.93s3.98-1.74 1.42-6.94c-2.4-4.9-7.53-3.96-7.53-3.96s3.82-3.69 0-9.17c-1.18-1.7-2.45-2.61-3.63-3.07l-.02-.02-.05-.01c-.46-.04-.93-.06-1.4-.07-.16-.01-.32 0-.47 0-8.61 0-26.49 16.71-25.12 23.74.83 4.27 9.64 2.61 14.06-.21-2.95 2.07-8.53 6.45-8.82 10.06-.4 4.93 15.63-.72 15.63-.72s-10.08 6.38-8.61 11.46c1.48 5.08 12.8-1.81 12.8-1.81s-7.72 5.28-6.94 9.91c.62 3.64 24.47-4.5 25.16-3.8 2.82-2.64 5.9-6.35 4.67-9.02z" style="fill:#febea5"></path>
  <path d="m2049.65 920.17 2.96 6.95s-7.02 3.33-9.1.65c-2.08-2.69 6.14-7.6 6.14-7.6zM2054.71 930.87l2.73 6.4s-6.46 3.06-8.38.59c-1.92-2.47 5.65-6.99 5.65-6.99zM2060.39 941.92l2.32 5.43s-5.48 2.6-7.11.5c-1.64-2.09 4.79-5.93 4.79-5.93zM2066.52 949.36l2.32 5.43s-5.48 2.6-7.11.5c-1.64-2.09 4.79-5.93 4.79-5.93zM868.19 943.09l269.95 107.86 155.15-77.43-26.91 127.13s-92.99 41.61-150.2 26c-57.21-15.6-262.42-153.13-262.42-153.13l14.43-30.43z" style="fill:#f4caba"></path>
  <path d="M1102.54 1121.55c8.01 2.09 16.25 3.49 24.53 3.8 6.43.25 13.42 0 19.43-2.56 4.74-2.02 8.9-5.13 13.22-7.88 4.66-2.96 9.61-5.28 15.17-5.83 6.15-.61 12.33.21 18.49-.07 4.84-.22 9.6-1.24 13.83-3.66 7.3-4.17 11.92-11.72 14.54-19.51 1.36-4.03 2.26-8.2 2.78-12.42.61-4.96.7-9.97 1.23-14.94 1.2-11.3 3.4-22.52 6.99-33.32 3.23-9.71 7.57-19.01 12.77-27.81l47.75-23.83-26.91 127.13s-92.99 41.61-150.2 26c-4.3-1.17-9.48-3.09-15.37-5.6.6.16 1.17.35 1.75.5z" style="opacity:.35;fill:#e8ad80"></path>
  <path d="m1385.27 890.39-141.71 99.31s-23.79 102.64 2.05 117.88c25.84 15.24 104.76-53.16 104.76-53.16l34.9-164.03z" style="fill:#f9d980"></path>
  <path d="M1260.31 1056.41a227.505 227.505 0 0 1 30.11-42.93c11.94-13.41 25.46-25.37 40.1-35.76 13.01-9.24 26.88-17.2 41.29-24.03l-21.43 100.72s-78.91 68.4-104.76 53.16c-1.73-1.02-3.23-2.44-4.53-4.18 4.76-16.26 11.15-32.06 19.22-46.98z" style="opacity:.35;fill:#f5b501"></path>
  <path d="m804.97 963.02.01-.01c2.68 2.04 6.79 4.51 13.19 7.54 0 0-.03-.04-.1-.1 3.14 1.63 6.52 3.11 9.98 4.41 5.96 2.26 10.45 3.57 13.66 4.34.02 0 .03.01.04.01 4.75 1.11 17.48-5.84 17.48-5.84s18.14 14.1 25.79 16.87c8.78-.13 17.19-29.75 17.19-29.75-1.41-7.51-26.43-2.51-31.18-13.88-5.54-13.26-1.49-46.47-11.62-42.35-10.15 4.13-5.43 26.66-5.43 26.66s-.19-.22-.56-.6c-2.23-2.34-10.88-10.97-21.07-15.85l-.01-.01c-2.84-1.34-5.8-2.4-8.77-2.95-.53-.09-1.05-.18-1.57-.25-.93-.12-1.88-.18-2.81-.17h-.47c-.47.01-.93.03-1.4.07l-.05.01-.02.02c-1.18.46-2.44 1.37-3.63 3.07-3.82 5.49 0 9.17 0 9.17s-5.13-.94-7.53 3.96c-2.56 5.21 1.42 6.94 1.42 6.94s-5.58.75-7.44 4.93c-1.97 4.41 2.68 6.34 2.68 6.34s-4.03-.04-6.39 5.1c-2.13 4.61 8.61 12.32 8.61 12.32z" style="fill:#f4caba"></path>
  <path d="M849.98 898.64s-.1 8.61 1.13 9.55c1.24.94 2.64-.32 2.64-.32s-1.2-8.19-3.77-9.23z" style="opacity:.2;fill:#fff"></path>
  <path d="M781.3 812.81s16.65 103.05 49.4 106.67 71.51-93.3 71.51-93.3L781.3 812.81z" style="fill:#f9d980"></path>
  <path d="M902.21 826.18c-.69 6.26-28.32 8.34-61.71 4.65-33.39-3.69-59.89-11.76-59.2-18.02.69-6.26 28.32-8.34 61.71-4.65 33.39 3.69 59.9 11.76 59.2 18.02z" style="fill:#5e3f35"></path>
  <path d="M802.87 822.71s8.86-8.37 35.57-4c26.71 4.37 32.94 17.24 41.39 2.31 8.45-14.93 7.97-43.88 24.2-39.54 16.24 4.34 13.5 13.68 21.08-6.17 7.58-19.84 38.48-32.86 25.09-4.02-13.39 28.83-36.21 32.83-30.45 42.25 5.76 9.42-17.55 12.65-17.55 12.65s-23.25 13.14-99.33-3.48z" style="fill:#ffca03"></path>
  <path d="m826.86 908.08-11.11 100.48 5.04.56 14.47-100.11z" style="fill:#f9d980"></path>
  <path d="M847.66 1012.09c-.44 3.95-14.14 5.67-30.6 3.85-16.46-1.82-29.45-6.5-29.02-10.44.44-3.95 14.14-5.67 30.6-3.85 16.47 1.82 29.46 6.49 29.02 10.44z" style="fill:#f9d980"></path>
  <path d="M1596.76 1384.34s142.85 293.58 267.67 389.64c0 0 10.35 98.13-90.38 63.43-354.31-122.04-177.29-453.07-177.29-453.07z" style="fill:#ffca03"></path>
  <path d="M1269.18 1357.16s-42.41 311.79-278.46 337.97c0 0 114.03 71.71 81.95 122.81-32.08 51.1 294.41-277.18 196.51-460.78z" style="fill:#f5b501"></path>
  <path d="M1542.56 2629.65s71.65 35.21 68.19 63.56c-2.96 24.17-85.62-19.25-90.53-35.44-3.1-10.22 22.34-28.12 22.34-28.12z" style="fill:#47271f"></path>
  <path d="M1552.1 2628.49s34.35 22.16 44.21 48.44c3.8 10.12-60.06 11.96-74.54-26.69-15.61-41.62 30.33-21.75 30.33-21.75z" style="fill:#5e3f35"></path>
  <path d="M1448.62 1692.37c12.23 118.09 34.22 414.65 32.93 469.55-1.52 69.44 43.89 479.22 43.89 479.22s22.96 18.61 33.33 2.6c10.25-15.91 59.48-417.54 60.88-435.55 1.21-15.52 32.87-337.63 59.01-490.15l-230.04-25.67z" style="fill:#f4caba"></path>
  <path d="M1481.55 2161.92c-1.14 52.18 24.22 296.55 36.89 414.79 2.27-63.02 4.23-59.41 3.97-88.67-.34-38.71-3.65-77.45-6.4-116.05-1.37-19.2-2.72-38.4-3.79-57.62-1.01-18.11-2.42-36.47-1.99-54.62.25-10.47 1.83-21.43 7.62-30.39 4.6-7.13 11.52-12.1 18.66-16.45 9.42-5.75 19.12-10.96 27.99-17.57 12.35-9.2 23.32-20.51 29.94-34.58 12.1-25.73 6.99-54.68 2.33-81.55-2.44-14.1-5.1-28.33-5.73-42.66-.43-9.74.15-20.16 4.73-28.98 7.2-13.85 22.83-17.79 36.72-21.68 3.66-1.02 7.31-2.08 10.91-3.26 10.7-93.67 23.53-196.17 35.25-264.57l-230.03-25.68c12.24 118.08 34.22 414.64 32.93 469.54z" style="opacity:.35;fill:#e8ad80"></path>
  <path d="M1561.13 2637.2s30.06 27.07 28 32.81c-2.06 5.74-60.98-10.88-63.69-28.86-2.71-18 35.69-3.95 35.69-3.95zM1241.77 1768.97c19.6 89.21 155.15 376.46 158.19 390.31 3.06 13.94 132.45-29.41 124.5-83.74-8.07-54.39-8.98-342.83-8.98-342.83-19.93-10.06-43.55-14.23-68.45-14.62-5.12-.1-10.43-.07-15.68.21-47.18 2.05-96.97 15.88-133.64 28.48-4.52 1.61-8.83 3.16-12.95 4.59-26.11 9.7-42.99 17.6-42.99 17.6z" style="fill:#f4caba"></path>
  <path d="M1353.41 1995.12c6.09-5.35 13.41-9.11 21.11-11.55 9.78-3.1 19.75-5.29 30.06-4.71 9.35.53 18.36 3.22 27.1 6.44 4.93 1.82 9.8 3.79 14.68 5.72 5.12 2.02 10.08 4.47 15.3 6.23 4.57 1.54 10.09 2.9 14.8 1.17 3.89-1.43 6.87-4.48 10.1-6.95 1.59-1.21 3.27-2.35 5.12-3.11 1.91-.79 3.88-1.03 5.93-1.07 3.9-.08 7.8.69 11.38 2.22 3.98 1.7 7.48 4.26 10.57 7.27-3.59-104.14-4.1-264.04-4.1-264.04-19.93-10.06-43.55-14.23-68.45-14.62-5.12-.1-10.43-.07-15.68.21-47.18 2.05-96.97 15.88-133.64 28.48-4.52 1.61-8.83 3.16-12.95 4.59-26.12 9.67-42.99 17.58-42.99 17.58 10.82 49.24 56.96 158.8 96.64 249.43 2.97-8.86 7.82-16.96 15.02-23.29z" style="opacity:.35;fill:#e8ad80"></path>
  <path d="M1155.27 2385.46s-30.02 8.99-26.84 18.44c3.19 9.45-.6 16.53-.6 16.53s13.35 116.73 30.82 105.18c17.47-11.55 24.03-78.38 19.81-99.45-4.21-21.05-4.07-38.16-23.19-40.7z" style="fill:#47271f"></path>
  <path d="M1180.59 2422.01s-10.27 47.66-17.98 74.85c-7.71 27.19-29.76-67.16-26.37-89.82 3.4-22.66 20.83-24.6 28.86-17.05 8.02 7.55 15.49 32.02 15.49 32.02z" style="fill:#5e3f35"></path>
  <path d="M1173.26 2430.65s-7.15 53.95-13.88 44.68c-6.73-9.27-18.28-64.86-3.33-75.59 14.94-10.74 17.21 30.91 17.21 30.91z" style="fill:#f4caba"></path>
  <path d="m1372.57 2059.89-216.53 339.84 14.59 47.54s394.5-270.65 350.4-389.61c-44.09-118.97-148.46 2.23-148.46 2.23z" style="fill:#f4caba"></path>
  <path d="M1875.54 1893.36s-60.68 15.95-140.61 32.29c-93.61 19.23-213.5 38.96-292.66 34.05-104.55-6.53-436.65-32.54-453.13-162.72.63 0 1.02-.26 1.52-.37 20.35-5.66 248.04-66.99 282.35-477.38 0 0 47.11 6.4 104.29 14.44 82.68 11.82 186.47 27.16 199.93 32.55.18.07.36.15.55.24 22.24 11.3 32.86 180.79 297.76 526.9z" style="fill:#f5b501"></path>
  <path d="M990.72 1796.66c20.34-5.66 248.06-66.99 282.28-477.4-.01 0 54.92 405.01-282.28 477.4z" style="fill:#ffca03"></path>
  <path d="M1588.79 1665.79c-58.3-82.18-27.8-213.92-109.07-206.3-203.41 19.06-192.11-89.62-192.11-89.62s36.69-16.47 89.72-36.2c82.68 11.82 186.47 27.16 199.93 32.55.18.07.36.15.55.24 22.23 11.28 32.85 180.78 297.75 526.89 0 0-60.68 15.95-140.61 32.29 8.8-16.47 26.51-35.07 51.39-52.02 86.08-59.05-139.37-125.78-197.55-207.83z" style="fill:#f5b501;opacity:.5"></path>
  <path d="M1172.9 638.5s35.18 229.83 172.34 190.52c0 0 90.7 95.53 167.59 12.8S1526 714.77 1526 714.77s221.47-164.21-61.43-269.82c0 0-84.6-20.25 24.9-111.94s-301.9-232.92-375.67-15.18c-73.76 217.74 59.1 320.67 59.1 320.67z" style="fill:#47271f"></path>
  <path d="M1432.36 875.54c-156.05-.05-171.66 430.01-180.38 462.72-13.62 51.08 309.9 88.54 364.39 34.06 28.74-28.76-19.52-496.73-184.01-496.78z" style="fill:#f9d980"></path>
  <path d="M1441.16 1067.59c-10.64 0-21.28-4.05-29.38-12.15-13.11-13.11-13.11-34.45 0-47.57 5.16-5.16 12.01-8 19.3-8 7.29 0 14.15 2.84 19.3 8 8.67 8.67 8.67 22.77 0 31.44-7.09 7.09-18.62 7.09-25.71 0-5.82-5.82-5.82-15.3 0-21.12 4.81-4.81 12.64-4.81 17.45 0 1.94 1.94 3.01 4.52 3.01 7.26s-1.07 5.32-3.01 7.26a8.565 8.565 0 0 1-6.08 2.52c-2.3 0-4.46-.89-6.08-2.52a7.279 7.279 0 0 1 0-10.29 1.95 1.95 0 0 1 2.77 0c.77.77.77 2.01 0 2.77a3.35 3.35 0 0 0 0 4.74 4.66 4.66 0 0 0 3.31 1.37c1.25 0 2.43-.49 3.31-1.37 1.2-1.2 1.86-2.79 1.86-4.48 0-1.69-.66-3.29-1.86-4.49-3.28-3.28-8.62-3.28-11.91 0-4.29 4.29-4.29 11.28 0 15.58 5.56 5.56 14.6 5.56 20.16 0 7.14-7.14 7.14-18.76 0-25.9-9.12-9.11-23.95-9.11-33.06 0-11.58 11.59-11.58 30.44 0 42.02 14.67 14.67 38.55 14.67 53.22 0a1.95 1.95 0 0 1 2.77 0c.77.77.77 2.01 0 2.77-8.09 8.11-18.73 12.16-29.37 12.16zM1446.23 1339.81c-16.81 0-33.62-6.4-46.42-19.2-20.72-20.72-20.72-54.44 0-75.16 8.15-8.15 18.98-12.63 30.5-12.63s22.35 4.49 30.5 12.63c13.7 13.7 13.7 35.98 0 49.68-11.2 11.2-29.42 11.2-40.62 0-9.2-9.2-9.2-24.17 0-33.37 7.6-7.6 19.97-7.6 27.57 0 3.06 3.06 4.75 7.14 4.75 11.47s-1.69 8.4-4.75 11.47a13.494 13.494 0 0 1-9.61 3.98c-3.63 0-7.05-1.41-9.61-3.98-4.48-4.48-4.48-11.77 0-16.26a3.096 3.096 0 1 1 4.38 4.38c-2.07 2.07-2.07 5.43 0 7.49 1.4 1.4 3.26 2.17 5.23 2.17 1.98 0 3.83-.77 5.23-2.17a9.97 9.97 0 0 0 2.94-7.09c0-2.68-1.04-5.19-2.94-7.09-5.19-5.18-13.62-5.19-18.81 0-6.78 6.78-6.78 17.82 0 24.61 8.78 8.78 23.07 8.78 31.86 0 11.28-11.28 11.28-29.63 0-40.92-14.4-14.4-37.84-14.4-52.24 0-18.3 18.31-18.3 48.09 0 66.39 23.18 23.18 60.9 23.18 84.09 0a3.096 3.096 0 1 1 4.38 4.38c-12.8 12.81-29.62 19.22-46.43 19.22z" style="opacity:.5;fill:#f9f5ed"></path>
  <path d="M1363.26 1184.37c-3.8 9.96-11.38 18.47-21.85 23.17-16.95 7.6-36.92-.01-44.52-16.96-2.99-6.66-3.2-14.09-.6-20.92s7.7-12.23 14.37-15.22c11.2-5.02 24.4.01 29.43 11.21 4.11 9.16-.01 19.95-9.17 24.06-7.53 3.37-16.39-.01-19.77-7.53-2.79-6.22 0-13.55 6.22-16.33 2.51-1.12 5.3-1.2 7.86-.23 2.57.98 4.6 2.9 5.72 5.4.94 2.1 1.01 4.44.19 6.59a8.556 8.556 0 0 1-4.53 4.79c-3.67 1.64-7.98 0-9.63-3.67-.44-.99 0-2.15.99-2.6.99-.44 2.15 0 2.6.99a3.362 3.362 0 0 0 4.44 1.69 4.637 4.637 0 0 0 2.46-2.61c.45-1.17.41-2.44-.1-3.59a6.324 6.324 0 0 0-3.53-3.34c-1.59-.6-3.31-.56-4.86.14-4.24 1.9-6.15 6.9-4.25 11.14 2.49 5.55 9.03 8.04 14.58 5.55 7.18-3.22 10.41-11.68 7.19-18.87-4.14-9.23-15.01-13.37-24.23-9.23-11.78 5.28-17.07 19.16-11.79 30.94 6.71 14.97 24.35 21.7 39.33 14.98 18.96-8.5 27.48-30.84 18.98-49.81-.44-.99 0-2.15.99-2.6.99-.44 2.15 0 2.6.99a41.617 41.617 0 0 1 .88 31.87z" style="fill:#f9f5ed;opacity:.25"></path>
  <path d="M1406.51 1159.98c3.79 9.94 11.36 18.44 21.82 23.13 16.93 7.59 36.87-.01 44.45-16.94 2.98-6.65 3.19-14.07.6-20.89-2.6-6.81-7.69-12.21-14.35-15.19-11.19-5.01-24.37.01-29.38 11.2-4.1 9.15.01 19.92 9.15 24.02 7.52 3.37 16.37-.01 19.74-7.52 2.78-6.21 0-13.53-6.21-16.31-2.5-1.12-5.29-1.2-7.85-.23-2.56.98-4.59 2.89-5.71 5.39a8.534 8.534 0 0 0-.19 6.58 8.539 8.539 0 0 0 4.52 4.79c3.66 1.64 7.97 0 9.61-3.66a1.96 1.96 0 1 0-3.58-1.6 3.36 3.36 0 0 1-4.43 1.69 4.637 4.637 0 0 1-2.46-2.61c-.45-1.17-.41-2.44.1-3.58a6.274 6.274 0 0 1 3.53-3.33c1.58-.6 3.31-.55 4.85.14 4.23 1.9 6.14 6.89 4.24 11.13-2.48 5.54-9.01 8.03-14.55 5.55-7.17-3.21-10.39-11.67-7.18-18.84 4.13-9.21 14.99-13.35 24.2-9.22 11.76 5.27 17.04 19.13 11.77 30.9-6.7 14.95-24.32 21.66-39.27 14.96-18.93-8.49-27.44-30.8-18.95-49.73a1.96 1.96 0 1 0-3.58-1.6c-4.68 10.44-4.68 21.82-.89 31.77z" style="opacity:.85;fill:#f9f5ed"></path>
  <path d="M1349.05 1054.04c7.53-1.16 15.49.55 22.1 5.4 10.7 7.85 13.02 22.94 5.17 33.65a19.398 19.398 0 0 1-12.79 7.75c-5.16.79-10.32-.47-14.52-3.56-7.07-5.19-8.61-15.17-3.42-22.24 4.24-5.78 12.4-7.04 18.18-2.8 4.75 3.49 5.78 10.19 2.3 14.94-2.88 3.93-8.42 4.78-12.34 1.9a7.322 7.322 0 0 1-2.92-4.81c-.3-1.94.18-3.88 1.34-5.46.97-1.33 2.4-2.19 4.03-2.44 1.63-.25 3.25.15 4.58 1.12a5.218 5.218 0 0 1 1.12 7.28c-.46.62-1.34.76-1.96.3-.63-.46-.76-1.34-.3-1.96.78-1.07.55-2.57-.52-3.35a3.31 3.31 0 0 0-2.49-.61c-.88.14-1.66.61-2.19 1.33-.72.98-1.01 2.18-.83 3.37.18 1.2.82 2.25 1.8 2.97 2.68 1.96 6.46 1.38 8.42-1.29 2.57-3.5 1.81-8.45-1.69-11.02-4.54-3.33-10.93-2.34-14.26 2.19-4.27 5.83-3.01 14.04 2.81 18.32 7.44 5.46 17.93 3.84 23.39-3.59 6.93-9.45 4.88-22.79-4.57-29.72-11.97-8.78-28.86-6.19-37.64 5.79-.46.63-1.34.76-1.96.3-.62-.46-.76-1.34-.3-1.96 4.85-6.62 11.94-10.64 19.46-11.8zM1531.55 1256.87c7.54-1.16 15.52.55 22.14 5.41 10.72 7.86 13.04 22.98 5.18 33.7a19.483 19.483 0 0 1-12.8 7.77c-5.17.79-10.33-.47-14.55-3.56-7.08-5.2-8.62-15.19-3.42-22.27 4.25-5.79 12.42-7.05 18.21-2.8 4.76 3.49 5.79 10.2 2.3 14.96-2.88 3.93-8.43 4.79-12.36 1.9a7.322 7.322 0 0 1-2.92-4.81c-.3-1.94.18-3.88 1.34-5.47.97-1.33 2.41-2.2 4.03-2.45 1.63-.25 3.26.15 4.58 1.12a5.22 5.22 0 0 1 1.12 7.29c-.46.63-1.34.76-1.96.3-.63-.46-.76-1.34-.3-1.96.78-1.07.55-2.58-.52-3.36a3.31 3.31 0 0 0-2.49-.61c-.89.14-1.67.61-2.2 1.33-.72.98-1.01 2.18-.83 3.38s.82 2.26 1.8 2.98c2.68 1.97 6.47 1.39 8.43-1.3 2.57-3.51 1.81-8.46-1.7-11.03-4.54-3.33-10.95-2.35-14.28 2.2-4.28 5.83-3.02 14.06 2.82 18.34 7.45 5.46 17.96 3.85 23.42-3.6 6.94-9.47 4.89-22.82-4.58-29.77-11.99-8.8-28.9-6.2-37.7 5.79-.46.63-1.34.76-1.96.3-.63-.46-.76-1.34-.3-1.96 4.86-6.63 11.96-10.66 19.5-11.82zM1326.47 1239.21c-7.54-1.16-15.52.55-22.14 5.41-10.72 7.86-13.04 22.98-5.18 33.7 3.09 4.21 7.64 6.97 12.8 7.77 5.17.79 10.33-.47 14.55-3.56 7.09-5.2 8.62-15.19 3.42-22.27-4.25-5.79-12.42-7.05-18.21-2.8-4.76 3.49-5.79 10.2-2.3 14.96 2.88 3.93 8.43 4.79 12.36 1.9a7.322 7.322 0 0 0 2.92-4.81c.3-1.94-.18-3.88-1.34-5.47a6.117 6.117 0 0 0-4.04-2.45c-1.63-.25-3.26.15-4.58 1.12a5.22 5.22 0 0 0-1.12 7.29c.46.63 1.34.76 1.96.3.63-.46.76-1.34.3-1.96-.78-1.07-.55-2.58.52-3.36a3.31 3.31 0 0 1 2.49-.61c.89.14 1.67.61 2.2 1.33.72.98 1.01 2.18.83 3.38s-.83 2.26-1.8 2.97c-2.68 1.97-6.47 1.39-8.43-1.3-2.57-3.51-1.81-8.46 1.7-11.03 4.54-3.33 10.95-2.35 14.28 2.2 4.28 5.83 3.02 14.06-2.82 18.34-7.45 5.46-17.96 3.85-23.42-3.6-6.95-9.47-4.89-22.82 4.57-29.77 11.99-8.8 28.9-6.2 37.7 5.79.46.63 1.34.76 1.96.3.63-.46.76-1.34.3-1.96-4.85-6.62-11.94-10.65-19.48-11.81z" style="opacity:.5;fill:#f9f5ed"></path>
  <path d="M1537.41 1058.15c-7.53-1.16-15.49.55-22.1 5.4-10.7 7.85-13.02 22.94-5.17 33.65 3.09 4.21 7.63 6.96 12.79 7.75 5.16.79 10.32-.47 14.52-3.56 7.07-5.19 8.61-15.17 3.42-22.24-4.24-5.78-12.4-7.04-18.18-2.8-4.75 3.49-5.78 10.19-2.3 14.94 2.88 3.93 8.42 4.78 12.34 1.9a7.322 7.322 0 0 0 2.92-4.81c.3-1.94-.18-3.88-1.34-5.46a6.082 6.082 0 0 0-4.03-2.44c-1.63-.25-3.25.15-4.58 1.12a5.218 5.218 0 0 0-1.12 7.28c.46.63 1.34.76 1.96.3.62-.46.76-1.34.3-1.96-.78-1.07-.55-2.57.52-3.35a3.31 3.31 0 0 1 2.49-.61c.88.14 1.66.61 2.19 1.33.72.98 1.01 2.18.83 3.37-.18 1.2-.82 2.25-1.8 2.97a6.042 6.042 0 0 1-8.42-1.29c-2.57-3.5-1.81-8.45 1.69-11.02 4.53-3.33 10.93-2.34 14.26 2.19 4.27 5.83 3.01 14.04-2.82 18.32-7.44 5.46-17.93 3.84-23.39-3.59-6.93-9.45-4.89-22.79 4.57-29.72 11.97-8.78 28.86-6.19 37.64 5.79.46.62 1.34.76 1.96.3.62-.46.76-1.34.3-1.96-4.84-6.62-11.93-10.64-19.45-11.8z" style="fill:#f9f5ed;opacity:.25"></path>
  <path d="M1573.46 1157.93c6.72 9.86 9.68 22.27 7.29 34.89-3.87 20.43-23.63 33.9-44.06 30.03-8.03-1.52-14.99-6.08-19.59-12.83s-6.3-14.9-4.78-22.93c2.56-13.5 15.62-22.41 29.12-19.85 11.04 2.09 18.32 12.77 16.23 23.81-1.72 9.07-10.49 15.05-19.56 13.33-7.49-1.42-12.44-8.67-11.02-16.16.57-3.02 2.29-5.64 4.82-7.37 2.54-1.73 5.6-2.37 8.62-1.8 2.53.48 4.72 1.92 6.17 4.04a9.595 9.595 0 0 1 1.51 7.23c-.84 4.42-5.11 7.33-9.53 6.49a2.201 2.201 0 0 1-1.75-2.57 2.201 2.201 0 0 1 2.57-1.75c2.04.39 4.01-.96 4.39-2.99.26-1.38-.03-2.77-.82-3.93a5.198 5.198 0 0 0-3.36-2.2 7.08 7.08 0 0 0-5.33 1.11 7.057 7.057 0 0 0-2.98 4.55c-.97 5.11 2.4 10.06 7.52 11.03 6.69 1.27 13.16-3.15 14.43-9.83 1.64-8.66-4.07-17.03-12.73-18.67-11.12-2.11-21.88 5.23-23.98 16.35-2.69 14.2 6.68 27.93 20.87 30.62 18.04 3.42 35.5-8.48 38.92-26.53 4.33-22.85-10.75-44.96-33.6-49.29a2.201 2.201 0 0 1-1.75-2.57 2.201 2.201 0 0 1 2.57-1.75c12.62 2.39 23.09 9.69 29.81 19.54z" style="opacity:.5;fill:#f9f5ed"></path>
  <path d="m1401.29 897.46 19.99-58.82 36.91 5.45 21.69 53.37s-3.08 24.46-38 24.46c-42.91 0-40.59-24.46-40.59-24.46z" style="fill:#f4caba"></path>
  <path d="m1458.18 844.08-36.91-5.45-4.4 12.95c3.53 6.44-4.56 9.99 1.46 13.89 6.01 3.9 11.01 24.91 18.2 24.91 13.42 0 30.04-25.68 20.47 5.21-.94 3.04-3.11 5.65-3.43 8.89-.41 4.23 2.04 8.07 2.36 12.21.09 1.24-.04 2.48-.31 3.7 22.02-5.33 24.25-22.95 24.25-22.95l-21.69-53.36z" style="opacity:.35;fill:#e8ad80"></path>
  <path d="M1512.91 771.08c-4.43-4.01-8.78-5.02-12.33-4.96.14-8.99-23.2-51.63-58.71-46.77-35.51-4.86-58.85 37.78-58.71 46.77-3.55-.06-7.89.95-12.33 4.96-8.27 7.48 5.95 26.28 14.49 29.17 3.52 30.48 29.14 75.28 55.25 75.27 27.12 0 54.33-44.79 57.85-75.27 8.54-2.9 22.75-21.69 14.49-29.17z" style="fill:#f4caba"></path>
  <path d="M1421.27 804.73c0 6-4.87 10.87-10.87 10.87-6.01 0-10.87-4.87-10.87-10.87 0-6.01 4.87-10.87 10.87-10.87 6.01-.01 10.87 4.86 10.87 10.87z" style="opacity:.1;fill:#47271f"></path>
  <path d="M1400.89 771.2c14.99-2.49 23.86 2.11 25.82.6 1.96-1.51-7.44-7.1-16.35-5.14-8.91 1.97-12.37 5.02-9.47 4.54zM1418.33 795.81c-.97 0-2.02-.08-3.17-.26-9.35-1.48-8.89-11.17-8.88-11.27.03-.53.48-.94 1.01-.89.52.03.93.48.9 1-.02.33-.35 8.07 7.28 9.27 7.81 1.24 10.49-2.73 10.6-2.9.29-.44.87-.57 1.32-.29.44.28.57.86.29 1.31-.13.2-2.63 4.03-9.35 4.03zM1372.39 779.98c-.16-.71-.28-1.5-.33-2.38-.46-7.13 6.75-8.4 6.82-8.41.39-.07.77.2.83.59.07.39-.2.76-.59.83-.25.04-6 1.08-5.62 6.89.38 5.96 3.75 7.27 3.89 7.33.37.14.56.55.43.92-.13.37-.54.57-.91.43-.17-.04-3.4-1.25-4.52-6.2zM1510.45 779.98c.16-.71.28-1.5.33-2.38.46-7.13-6.75-8.4-6.82-8.41-.39-.07-.77.2-.82.59-.07.39.2.76.59.83.25.04 6 1.08 5.62 6.89-.38 5.96-3.75 7.27-3.89 7.33-.37.14-.56.55-.43.92.13.37.54.57.91.43.16-.04 3.4-1.25 4.51-6.2z" style="fill:#47271f"></path>
  <path d="M1404.29 793.98c-.33 0-.65-.17-.83-.48a.957.957 0 0 1 .35-1.3l4.61-2.64a.949.949 0 0 1 1.3.35c.26.46.1 1.04-.35 1.3l-4.61 2.64c-.15.09-.31.13-.47.13zM1409.42 799.72a.955.955 0 0 1-.83-1.42l2.72-4.91a.955.955 0 1 1 1.67.93l-2.72 4.91c-.18.31-.51.49-.84.49zM1418.78 801.38c-.46 0-.86-.33-.94-.8l-.91-5.44a.952.952 0 0 1 .78-1.1.952.952 0 0 1 1.1.78l.91 5.44a.952.952 0 0 1-.78 1.1c-.05.01-.11.02-.16.02z" style="fill:#47271f"></path>
  <circle cx="1475.9" cy="804.73" r="10.87" style="opacity:.1;fill:#47271f"></circle>
  <path d="M1485.42 771.2c-14.99-2.49-23.86 2.11-25.82.6-1.96-1.51 7.44-7.1 16.35-5.14 8.9 1.97 12.36 5.02 9.47 4.54zM1467.97 795.81c-6.72 0-9.22-3.83-9.33-4.02a.944.944 0 0 1 .3-1.31.946.946 0 0 1 1.31.3c.11.16 2.79 4.13 10.6 2.89 7.63-1.2 7.29-8.94 7.28-9.27-.03-.52.37-.98.9-1 .5-.04.97.37 1.01.89.01.1.47 9.79-8.88 11.27-1.17.17-2.22.25-3.19.25z" style="fill:#47271f"></path>
  <path d="M1482.02 793.98c-.16 0-.32-.04-.47-.13l-4.61-2.64a.949.949 0 0 1-.35-1.3c.26-.46.85-.61 1.3-.35l4.61 2.64c.46.26.61.84.35 1.3-.18.31-.5.48-.83.48zM1476.88 799.72c-.34 0-.66-.18-.83-.49l-2.72-4.91a.955.955 0 0 1 .37-1.3.964.964 0 0 1 1.3.37l2.72 4.91a.955.955 0 0 1-.84 1.42zM1467.52 801.38c-.05 0-.11 0-.16-.01a.952.952 0 0 1-.78-1.1l.91-5.44c.09-.52.57-.87 1.1-.78.52.09.87.58.78 1.1l-.91 5.44c-.08.46-.48.79-.94.79zM1436.36 809.67s4.42 3.17 6.8 2.94c2.38-.23 6.8-3.06 6.8-3.06s-.67 6.66-6.8 6.8c-5.05.12-6.8-6.68-6.8-6.68zM1428.19 839.26c1.17 1.82 5.71 7.79 14.27 8.08 9.82.33 15.44-7.31 15.72-7.69-.32.1-5.6 1.93-15.26 2.48-9.18.52-14.02-2.4-14.73-2.87z" style="fill:#47271f"></path>
  <path d="M1457.52 838.77s1.4.72 1.02 2.19c0 0 1.59-2.3-1.02-2.19zM1428.78 838.64c-2.6-.11-1.02 2.19-1.02 2.19-.38-1.47 1.02-2.19 1.02-2.19z" style="fill:#47271f"></path>
  <path d="M1456.94 2018.4s68.05 17.76 67.54 66.6c0 .01 13.36-72.25-67.54-66.6z" style="opacity:.35;fill:#e8ad80"></path>
  <path d="M1380.91 766.23c2.04.96 16.69-1.89 22.2-19.61 5.51-17.72 16.18 6.55 26.97-8.86s16.18-1.93 26.58-5.01c10.4-3.08 3.85 13.87 18.11 10.02 14.25-3.85 16.97 32.43 25.82 23.34 8.85-9.09-3.83-63.41-62.79-60.71-58.96 2.7-66.76 56.16-56.89 60.83z" style="fill:#47271f"></path>
  <path d="M795.29 951.29c2.36-5.14 6.39-5.1 6.39-5.1s-4.65-1.93-2.68-6.34c1.86-4.17 7.44-4.93 7.44-4.93s-3.98-1.74-1.42-6.94c2.4-4.9 7.53-3.96 7.53-3.96s-3.82-3.69 0-9.17c1.19-1.7 2.45-2.61 3.63-3.07l.02-.02.05-.01c.46-.04.93-.07 1.4-.07.16-.01.32 0 .47 0 8.61 0 26.49 16.71 25.12 23.74-.83 4.27-9.64 2.61-14.06-.21 2.95 2.07 8.53 6.45 8.82 10.06.4 4.93-15.63-.72-15.63-.72s10.08 6.38 8.61 11.46c-1.48 5.08-12.8-1.81-12.8-1.81s7.72 5.28 6.94 9.91c-.61 3.64-24.47-4.5-25.16-3.8-2.81-2.64-5.9-6.35-4.67-9.02z" style="fill:#febea5"></path>
  <path d="m836.09 927.91-2.96 6.95s7.01 3.33 9.1.65-6.14-7.6-6.14-7.6zM831.03 938.61l-2.73 6.4s6.46 3.06 8.38.59c1.92-2.47-5.65-6.99-5.65-6.99zM825.36 949.66l-2.32 5.43s5.48 2.6 7.11.5c1.64-2.09-4.79-5.93-4.79-5.93zM819.22 957.1l-2.32 5.43s5.48 2.6 7.11.5c1.64-2.09-4.79-5.93-4.79-5.93z" style="fill:#f4caba"></path>
  <path d="M1484.63 918.8c-1.63-10.19-4.33-20.15-8.19-29.57 2.9 9.77 4.94 19.8 5.91 29.89.97 10.05.79 20.31-1.77 29.82-1.3 4.73-3.31 9.19-6.01 13.08-2.69 3.9-6.22 7.07-10.18 9.48-3.67 2.19-7.71 3.69-11.87 4.73-4.76-2.87-9-.69-11.71 1.65h-.03c5.26-9.06-3.07-14.01-3.07-14.01-4.41 4.59-3.45 10.07-1.98 13.74-5.67-7.78-11.74-2.66-13.01-1.42-4.11-1.24-8-3.15-11.23-5.98-3.49-2.97-6.27-6.83-8.23-11.2-1.99-4.36-3.14-9.18-3.9-14.07-.74-4.91-.93-9.94-.83-14.97.07-5.04.49-10.09 1.13-15.12 1.24-10.07 3.32-20.07 6.01-29.92-3.76 9.47-6.5 19.38-8.44 29.5-1.84 10.12-2.85 20.56-1.72 31.06.56 5.23 1.71 10.48 3.81 15.42 2.08 4.93 5.16 9.55 9.2 13.09 4.02 3.57 8.89 5.9 13.84 7.32 3.39.91 6.83 1.43 10.27 1.63-6.83 4.22-3.34 12.41-3.34 12.41 5.96-.79 8.14-5.74 8.94-9.63.95 11.22 10.48 9.11 10.48 9.11.61-5.39-1.84-8.73-4.51-10.76 2.98.38 5.04-.81 6.44-2.35.6-.12 1.19-.21 1.79-.35 4.94-1.16 9.82-2.96 14.24-5.78 4.4-2.8 8.35-6.53 11.29-11 2.98-4.44 4.94-9.5 6.18-14.64 2.44-10.36 2.01-20.98.49-31.16z" style="opacity:.15;fill:#f5b501"></path>
  <path d="M1405.68 884.92c-2.69 9.36-4.77 18.87-6.01 28.45-.63 4.78-1.06 9.59-1.13 14.38-.1 4.79.09 9.57.83 14.23.75 4.65 1.91 9.23 3.9 13.38 1.96 4.15 4.74 7.83 8.23 10.65 3.46 2.87 7.67 4.76 12.09 5.93 4.46 1.11 9.12 1.52 13.84 1.46 4.74-.04 9.45-.45 14.03-1.39 4.55-1 8.97-2.51 12.96-4.77 3.96-2.28 7.49-5.3 10.18-9.01 2.7-3.69 4.71-7.93 6.01-12.44 2.56-9.04 2.74-18.8 1.77-28.36-.98-9.59-3.02-19.13-5.91-28.42 3.86 8.96 6.56 18.43 8.19 28.12 1.53 9.68 1.95 19.78-.48 29.62-1.24 4.88-3.2 9.7-6.18 13.92-2.93 4.25-6.88 7.79-11.29 10.46-4.42 2.67-9.31 4.39-14.24 5.49-4.95 1.06-9.97 1.53-14.96 1.61-5.01.13-10.12-.37-15.1-1.65-4.95-1.35-9.82-3.56-13.84-6.96-4.04-3.36-7.12-7.76-9.2-12.45-2.1-4.7-3.25-9.69-3.81-14.67-1.13-9.98-.12-19.9 1.72-29.53 1.9-9.62 4.64-19.05 8.4-28.05z" style="fill:#47271f"></path>
  <path d="M1437.72 959.99s10.7 6.04.21 16.95c0 0-7.57-9.67-.21-16.95z" style="fill:#fff"></path>
  <path d="M1453.25 972.19s-2.93 12.39-15.56 4.38c.01 0 7.04-10.1 15.56-4.38z" style="fill:#fff"></path>
  <path d="M1448.73 989.42s-11.9 2.52-10.44-12.92c0 0 11.69 2.37 10.44 12.92z" style="fill:#fff"></path>
  <path d="M1429.3 989.92s-5.19-11.54 9.4-13.77c0 .01.63 12.51-9.4 13.77z" style="fill:#fff"></path>
  <path d="M1422.48 971.94s8.6-9.01 15.47 4.71c0 0-10.99 4.81-15.47-4.71z" style="fill:#fff"></path>
  <path d="M1438.61 975.87c2.76-4.26-.36-7.45-.36-7.45-2.36 2.66-.98 6.85-.5 8.07-3.13-5.13-7.44-2.63-7.44-2.63 1.63 2.96 5.45 2.98 6.94 2.87-4.25 1.78-3.59 6.07-3.59 6.07 2.88-.56 4.22-3.7 4.75-5.41.26 5.49 4.81 5.87 4.81 5.87.17-2.97-2.21-5.05-3.69-6.05 4.13 1.16 6.09-2.42 6.09-2.42-2.62-1.5-5.6.11-7.01 1.08z" style="fill:#f5b501"></path>
  <path d="M1439.4 976.23c.15.67-.25 1.34-.89 1.5-.64.16-1.28-.26-1.43-.94-.15-.67.25-1.34.89-1.5.64-.15 1.29.27 1.43.94z" style="fill:#f26522"></path>
  <path d="m2135.79 1292.76-29.38-18.59-3.59 32-5.05 45.01c-4.77-2.2-11.1-2.99-18.02-1.81-14.37 2.45-25.73 12.37-25.38 22.16.36 9.79 12.29 15.75 26.67 13.3 14.37-2.45 25.73-12.37 25.38-22.16v-57.96l29.37-11.95z" style="fill:#f9d980"></path>
  <path d="M1578.73 727.67s89.46-59.41 95.51-125.91c6.05-66.5 25.39-122.12 102.78-131.79 77.39-9.67-35.07 47.8-39.9 116.4-4.85 68.59-85.83 165.64-158.39 141.3zM1056.06 534.03s-1.87 90.58 62.73 106.44c64.61 15.86-9.78 89.78 28.04 119.64s-51.58 59.08-74.96-14.16c-23.38-73.23 30.84-96.14-58.68-114.95s-36.56-143.62 42.87-96.97z" style="fill:#f9f5ed"></path>
  <path d="M1691.42 741.5c0 9.68-7.85 17.53-17.53 17.53s-17.53-7.85-17.53-17.53 7.85-17.53 17.53-17.53 17.53 7.85 17.53 17.53z" style="fill:#f9d980"></path>
  <circle cx="1909.4" cy="512.37" r="33.86" style="fill:#f9f5ed"></circle>
  <circle cx="970.35" cy="709.04" r="27.4" style="fill:#f9f5ed"></circle>
</svg>
